{
  "accessors": [
    {
      "bufferView": 0,
      "componentType": 5126,
      "count": 1041,
      "type": "VEC3",
      "max": [
        4.4296350479125977,
        1.2482295036315918,
        5.358027458190918
      ],
      "min": [
        -4.4296345710754395,
        -1.2482315301895142,
        -5.358027458190918
      ]
    },
    {
      "bufferView": 1,
      "componentType": 5126,
      "count": 1041,
      "type": "VEC3",
      "max": [
        1.0,
        1.0,
        1.0
      ],
      "min": [
        -1.0,
        -1.0,
        -1.0
      ]
    },
    {
      "bufferView": 2,
      "componentType": 5126,
      "count": 1041,
      "type": "VEC4",
      "max": [
        1.0,
        1.0,
        1.0,
        1.0
      ],
      "min": [
        -1.0,
        -1.0,
        -1.0,
        -1.0
      ]
    },
    {
      "bufferView": 3,
      "componentType": 5126,
      "count": 1041,
      "type": "VEC2",
      "max": [
        0.9973067045211792,
        0.99380379915237427
      ],
      "min": [
        0.0015493172686547041,
        0.0012153610587120056
      ]
    },
    {
      "bufferView": 4,
      "componentType": 5125,
      "count": 3078,
      "type": "SCALAR",
      "max": [
        1040.0
      ],
      "min": [
        0.0
      ]
    }
  ],
  "asset": {
    "generator": "Plattar UnityGLTF (2019.4.34f1)",
    "version": "2.0"
  },
  "buffers": [
    {
      "uri": "defender4.bin",
      "byteLength": 62280
    }
  ],
  "bufferViews": [
    {
      "buffer": 0,
      "byteLength": 12492
    },
    {
      "buffer": 0,
      "byteOffset": 12492,
      "byteLength": 12492
    },
    {
      "buffer": 0,
      "byteOffset": 24984,
      "byteLength": 16656
    },
    {
      "buffer": 0,
      "byteOffset": 41640,
      "byteLength": 8328
    },
    {
      "buffer": 0,
      "byteOffset": 49968,
      "byteLength": 12312
    }
  ],
  "images": [
    {
      "uri": "StarSparrow_Emission.jpg",
      "name": "StarSparrow_Emission"
    },
    {
      "uri": "StarSparrow_Normal.png",
      "name": "StarSparrow_Normal"
    },
    {
      "uri": "StarSparrow_Yellow.jpg",
      "name": "StarSparrow_Yellow"
    },
    {
      "uri": "StarSparrow_MetallicSmoothness.png",
      "name": "StarSparrow_MetallicSmoothness"
    }
  ],
  "materials": [
    {
      "pbrMetallicRoughness": {
        "baseColorTexture": {
          "index": 2
        },
        "metallicFactor": 0.99,
        "metallicRoughnessTexture": {
          "index": 3
        }
      },
      "normalTexture": {
        "index": 1
      },
      "emissiveTexture": {
        "index": 0
      },
      "emissiveFactor": [
        1.0,
        1.0,
        1.0
      ],
      "name": "StarSparrow_Yellow"
    }
  ],
  "meshes": [
    {
      "primitives": [
        {
          "attributes": {
            "POSITION": 0,
            "NORMAL": 1,
            "TANGENT": 2,
            "TEXCOORD_0": 3
          },
          "indices": 4,
          "material": 0
        }
      ],
      "name": "defender4"
    }
  ],
  "nodes": [
    {
      "mesh": 0,
      "rotation": [
        2.18556941E-08,
        8.742278E-08,
        1.91068547E-15,
        -1.0
      ],
      "name": "defender4"
    }
  ],
  "samplers": [
    {
      "minFilter": 9729
    }
  ],
  "scene": 0,
  "scenes": [
    {
      "nodes": [
        0
      ],
      "name": "defender4"
    }
  ],
  "textures": [
    {
      "sampler": 0,
      "source": 0,
      "name": "StarSparrow_Emission"
    },
    {
      "sampler": 0,
      "source": 1,
      "name": "StarSparrow_Normal"
    },
    {
      "sampler": 0,
      "source": 2,
      "name": "StarSparrow_Yellow"
    },
    {
      "sampler": 0,
      "source": 3,
      "name": "StarSparrow_MetallicSmoothness"
    }
  ]
}