{
  "accessors": [
    {
      "bufferView": 0,
      "componentType": 5126,
      "count": 1040,
      "type": "VEC3",
      "max": [
        3.1878082752227783,
        1.4366970062255859,
        5.2788715362548828
      ],
      "min": [
        -3.1878082752227783,
        -1.4366970062255859,
        -5.2788715362548828
      ]
    },
    {
      "bufferView": 1,
      "componentType": 5126,
      "count": 1040,
      "type": "VEC3",
      "max": [
        1.0,
        1.0,
        1.0
      ],
      "min": [
        -1.0,
        -1.0,
        -1.0
      ]
    },
    {
      "bufferView": 2,
      "componentType": 5126,
      "count": 1040,
      "type": "VEC4",
      "max": [
        1.0,
        1.0,
        1.0,
        1.0
      ],
      "min": [
        -1.0,
        -1.0,
        -1.0,
        -1.0
      ]
    },
    {
      "bufferView": 3,
      "componentType": 5126,
      "count": 1040,
      "type": "VEC2",
      "max": [
        0.9973067045211792,
        0.99627310037612915
      ],
      "min": [
        0.0015493172686547041,
        0.0061962008476257324
      ]
    },
    {
      "bufferView": 4,
      "componentType": 5123,
      "count": 2880,
      "type": "SCALAR",
      "max": [
        1039.0
      ],
      "min": [
        0.0
      ]
    }
  ],
  "asset": {
    "version": "2.0"
  },
  "buffers": [
    {
      "uri": "defender5.bin",
      "byteLength": 55680
    }
  ],
  "bufferViews": [
    {
      "buffer": 0,
      "byteLength": 12480
    },
    {
      "buffer": 0,
      "byteOffset": 12480,
      "byteLength": 12480
    },
    {
      "buffer": 0,
      "byteOffset": 24960,
      "byteLength": 16640
    },
    {
      "buffer": 0,
      "byteOffset": 41600,
      "byteLength": 8320
    },
    {
      "buffer": 0,
      "byteOffset": 49920,
      "byteLength": 5760
    }
  ],
  "images": [
    {
      "uri": "StarSparrow_Emission.png",
      "name": "StarSparrow_Emission"
    },
    {
      "uri": "StarSparrow_Normal.png",
      "name": "StarSparrow_Normal"
    },
    {
      "uri": "StarSparrow_Blue.png",
      "name": "StarSparrow_Blue"
    },
    {
      "uri": "StarSparrow_MetallicSmoothness.png",
      "name": "StarSparrow_MetallicSmoothness"
    }
  ],
  "materials": [
    {
      "pbrMetallicRoughness": {
        "baseColorTexture": {
          "index": 2
        },
        "metallicFactor": 0.0,
        "roughnessFactor": 0.5,
        "metallicRoughnessTexture": {
          "index": 3
        }
      },
      "normalTexture": {
        "index": 1
      },
      "emissiveTexture": {
        "index": 0
      },
      "emissiveFactor": [
        1.0,
        1.0,
        1.0
      ],
      "name": "StarSparrow_Blue"
    }
  ],
  "meshes": [
    {
      "primitives": [
        {
          "attributes": {
            "POSITION": 0,
            "NORMAL": 1,
            "TANGENT": 2,
            "TEXCOORD_0": 3
          },
          "indices": 4,
          "material": 0
        }
      ],
      "name": "defender5"
    }
  ],
  "nodes": [
    {
      "mesh": 0,
      "rotation": [
        2.18556941E-08,
        0.0,
        0.0,
        -1.0
      ],
      "name": "defender5"
    }
  ],
  "samplers": [
    {}
  ],
  "scene": 0,
  "scenes": [
    {
      "nodes": [
        0
      ],
      "name": "defender5"
    }
  ],
  "textures": [
    {
      "sampler": 0,
      "source": 0,
      "name": "StarSparrow_Emission"
    },
    {
      "sampler": 0,
      "source": 1,
      "name": "StarSparrow_Normal"
    },
    {
      "sampler": 0,
      "source": 2,
      "name": "StarSparrow_Blue"
    },
    {
      "sampler": 0,
      "source": 3,
      "name": "StarSparrow_MetallicSmoothness"
    }
  ]
}